<svg width="180" height="26" viewBox="0 0 180 26" fill="none" xmlns="http://www.w3.org/2000/svg">
    <g id="Frame" clip-path="url(#clip0_101_717)">
        <path id="Vector"
            d="M39.7964 1.5484C35.5418 1.67743 32.0073 5.41937 30.8291 10.2581C34.2982 11.1613 36.5891 13.1613 36.7855 17.0323C36.9164 19.4839 35.28 21.6774 32.4655 23.0968C33.9055 24.9678 36.1964 26.129 39.7964 25.9355C47.1273 25.6774 49.2873 21.8065 49.2873 15.0968C49.2873 8.45163 46.7346 1.5484 40.0582 1.5484C39.9927 1.5484 39.9273 1.5484 39.7964 1.5484Z"
            fill="#F9BE2C" />
        <path id="Vector_2"
            d="M12.1745 17.1613C12.0436 20.9032 17.9345 24.7097 25.2654 24.7097C28.08 24.7097 30.5018 24.129 32.4 23.1613C30.6981 20.9032 30.24 17.4839 30.3054 13.8065C30.3054 12.5806 30.5018 11.4194 30.7636 10.3226C28.9309 9.80646 26.7054 9.61291 24.2836 9.61291C24.2181 9.61291 24.0872 9.61291 24.0218 9.61291C15.7745 9.54839 12.3054 13.8065 12.1745 17.1613Z"
            fill="#4C8DCB" />
        <path id="Vector_3"
            d="M36.7855 17.0323C36.5891 13.1613 34.2982 11.2258 30.8291 10.2581C30.5673 11.3548 30.371 12.5806 30.371 13.7419C30.3055 17.4193 30.7637 20.8387 32.4655 23.0968C35.2146 21.7419 36.9164 19.4839 36.7855 17.0323Z"
            fill="#0C104A" />
        <path id="Vector_4"
            d="M49.4836 4.64516C49.4836 7.54839 51.2509 9.29032 54.2618 9.29032C57.0764 9.29032 59.04 7.54839 59.04 4.64516C59.04 1.74194 57.7309 0 54.2618 0C50.7927 0 49.4836 1.74194 49.4836 4.64516Z"
            fill="#D6007F" />
        <path id="Vector_5"
            d="M0 18.2581C0 20.5161 1.11273 22.0645 4.97455 22.0645C8.83636 22.0645 9.94909 20.5161 9.94909 18.2581C9.94909 16 7.59273 11.8065 4.97455 11.8065C2.35636 11.8065 0 16 0 18.2581Z"
            fill="#A4B319" />
        <path id="Vector_6"
            d="M51.7747 18.129C51.7747 20.8387 54.3274 22.2581 64.0147 22.2581C70.7565 22.2581 76.1892 20.0645 76.2547 17.3548C76.2547 17.3548 76.2547 17.3548 76.2547 17.2903C76.2547 14 68.0074 12 61.2656 12C54.4583 12 51.7747 15.4194 51.7747 18.129Z"
            fill="#B2B1B0" />
        <path id="Vector_7"
            d="M126.72 21.0323H124.495L125.607 18.2581L126.72 21.0323ZM120.96 24.5807H123.185L123.905 22.7097H127.44L128.225 24.5807H130.451L126.524 15.6774H124.887L120.96 24.5807ZM113.76 24.5807H120.109V22.7742H115.724V20.9678H119.651V19.1613H115.724V17.4839H119.847V15.6774H113.695V24.5807H113.76ZM107.345 17.3549H108.655C109.375 17.3549 110.225 17.4839 110.225 18.3871C110.225 19.3549 109.309 19.3549 108.524 19.3549H107.345V17.3549ZM105.382 24.5807H107.345V21.0323H108.327L110.225 24.5807H112.582L110.291 20.8387C111.535 20.5807 112.255 19.6129 112.255 18.3871C112.255 16.3226 110.684 15.6774 108.851 15.6774H105.382V24.5807ZM96.2837 20.1291C96.2837 18.4516 97.3964 17.2903 99.0982 17.2903C100.8 17.2903 101.913 18.5161 101.913 20.1291C101.913 21.8065 100.8 22.9678 99.0982 22.9678C97.3964 23.0323 96.2837 21.8065 96.2837 20.1291ZM94.1891 20.1291C94.1891 22.9678 96.2182 24.8387 99.0328 24.8387C101.847 24.8387 103.942 23.0323 103.942 20.1291C103.942 17.2258 101.913 15.4194 99.0328 15.4194C96.2837 15.4839 94.1891 17.2903 94.1891 20.1291ZM86.1382 24.5807H88.1018V20.3226L91.7673 24.5807H94.5818L90.1964 19.8065L94.1891 15.6774H91.5709L88.0364 19.3549V15.6774H86.0728V24.5807H86.1382Z"
            fill="white" />
        <path id="Vector_8"
            d="M174.305 11.8064H180V9.99998H176.334V2.90321H174.371V11.8064H174.305ZM170.444 11.8064H172.407V2.90321H170.444V11.8064ZM169.2 3.99998C168.414 3.03224 167.171 2.70966 166.124 2.70966C163.309 2.70966 161.214 4.51611 161.214 7.41934C161.214 10.3226 163.244 12.129 166.124 12.129C167.367 12.129 168.611 11.6129 169.396 10.5806L167.76 9.35482C167.367 9.93546 166.713 10.3226 165.927 10.3226C164.487 10.3226 163.374 9.09676 163.374 7.48385C163.374 5.80643 164.487 4.64514 165.993 4.64514C166.713 4.64514 167.302 4.90321 167.694 5.35482L169.2 3.99998ZM151.331 11.8064H153.294V5.48385L157.222 11.8064H159.84V2.90321H157.876V9.09676L154.014 2.90321H151.331V11.8064ZM149.498 2.90321H147.534V8.32256C147.534 9.41933 146.749 10.258 145.702 10.258C144.654 10.258 143.869 9.41933 143.869 8.32256V2.90321H141.905V8.38708C141.905 10.5161 143.214 12.0645 145.702 12.0645C148.189 12.0645 149.498 10.5161 149.498 8.38708V2.90321ZM132.873 7.35482C132.873 5.6774 133.985 4.51611 135.687 4.51611C137.389 4.51611 138.502 5.74192 138.502 7.35482C138.502 9.03224 137.389 10.1935 135.687 10.1935C133.985 10.258 132.873 9.03224 132.873 7.35482ZM130.778 7.35482C130.778 10.1935 132.807 12.0645 135.687 12.0645C138.502 12.0645 140.596 10.258 140.596 7.35482C140.596 4.45159 138.567 2.64514 135.687 2.64514C132.873 2.70966 130.778 4.51611 130.778 7.35482ZM130.254 3.99998C129.469 3.03224 128.225 2.70966 127.178 2.70966C124.364 2.70966 122.334 4.51611 122.334 7.41934C122.334 10.3226 124.364 12.129 127.178 12.129C128.422 12.129 129.665 11.6129 130.451 10.5806L128.814 9.35482C128.422 9.93546 127.767 10.3226 126.982 10.3226C125.542 10.3226 124.429 9.09676 124.429 7.48385C124.429 5.80643 125.542 4.64514 127.047 4.64514C127.767 4.64514 128.356 4.90321 128.749 5.35482L130.254 3.99998ZM117.294 3.61288C116.509 2.96772 115.527 2.70966 114.545 2.70966C112.778 2.70966 111.076 3.6774 111.076 5.61288C111.076 8.58063 115.331 7.6774 115.331 9.35482C115.331 9.99998 114.611 10.258 113.956 10.258C113.302 10.258 112.647 9.93546 112.189 9.41934L110.749 10.9677C111.6 11.7419 112.647 12.0645 113.76 12.0645C115.593 12.0645 117.229 11.0968 117.229 9.16127C117.229 6.0645 113.04 7.09676 113.04 5.48385C113.04 4.83869 113.825 4.58063 114.349 4.58063C114.807 4.58063 115.462 4.77417 115.789 5.16127L117.294 3.61288ZM105.774 11.8064H107.738V4.64514H110.291V2.90321H103.156V4.64514H105.709V11.8064H105.774ZM97.5272 4.58063H98.8363C99.5563 4.58063 100.407 4.70966 100.407 5.61288C100.407 6.58063 99.4908 6.58063 98.7054 6.58063H97.5272V4.58063ZM95.5635 11.8064H97.5272V8.25805H98.509L100.407 11.8064H102.764L100.473 8.0645C101.782 7.80643 102.436 6.83869 102.436 5.61288C102.436 3.54837 100.865 2.90321 99.0326 2.90321H95.5635V11.8064ZM90.9163 8.25805H88.6908L89.8035 5.48385L90.9163 8.25805ZM85.0908 11.8064H87.3163L88.0363 9.93546H91.5708L92.3563 11.8064H94.5817L90.6545 2.90321H89.0181L85.0908 11.8064Z"
            fill="white" />
    </g>
    <defs>
        <clipPath id="clip0_101_717">
            <rect width="180" height="26" fill="white" />
        </clipPath>
    </defs>f
</svg>